# xmcd
#
# Track frame offsets:
#	150
#	17391
#	34513
#	50998
#	69677
#	87242
#	103678
#	119797
#	136188
#	160204
#	178519
#	196299
#
# Disc length: 2923 seconds
#
# Revision: 0
# Processed by: cddbd v1.5.1PL2 Copyright (c) Steve Scherf et al.
# Submitted via: dBpowerAMP V4.0
#
DISCID=a30b690c
DTITLE=Poverty Neck Hillbillies - Don't Look Back
DYEAR=2005
DGENRE=Country
TTITLE0=Any Road
TTITLE1=Go Crazy With My Heart
TTITLE2=Heaven Help Me
TTITLE3=Jericho
TTITLE4=Kinda Cool Ain't It
TTITLE5=Mr. Right Now
TTITLE6=One Night in New Orleans
TTITLE7=Right Here, Right Now
TTITLE8=She Rides Wild Horses
TTITLE9=The Hillbilly Way
TTITLE10=The Night That Changed My Life
TTITLE11=The Way
EXTD=
EXTT0=
EXTT1=
EXTT2=
EXTT3=
EXTT4=
EXTT5=
EXTT6=
EXTT7=
EXTT8=
EXTT9=
EXTT10=
EXTT11=
PLAYORDER=
